<?xml version="1.0" encoding="utf-8"?>
<!-- Generator: Adobe Illustrator 16.0.0, SVG Export Plug-In . SVG Version: 6.00 Build 0)  -->
<!DOCTYPE svg PUBLIC "-//W3C//DTD SVG 1.1//EN" "http://www.w3.org/Graphics/SVG/1.1/DTD/svg11.dtd">
<svg version="1.1" id="Layer_1" xmlns="http://www.w3.org/2000/svg" xmlns:xlink="http://www.w3.org/1999/xlink" x="0px" y="0px"
	 width="545.441px" height="667.365px" viewBox="0 0 545.441 667.365" enable-background="new 0 0 545.441 667.365"
	 xml:space="preserve">
<g>
	<path fill="#FFFFFF" stroke="#1C75BC" stroke-width="14" stroke-miterlimit="10" d="M514.863,94.49
		c0,0-131.299,14.94-241.073-85.022C164.018,109.431,32.719,96.175,32.719,96.175S14.965,508.092,273.79,545.851
		C532.616,508.092,514.863,94.49,514.863,94.49z"/>
</g>
<g>
	<g id="XMLID_1_">
		<g>
			<path fill="#1C75BC" d="M475.354,578.575c0.249-0.726,0.499-1.463,0.76-2.211C475.853,577.112,475.603,577.85,475.354,578.575z"
				/>
			<path fill="#1C75BC" d="M470.978,591.827c0.307-0.986,0.624-1.973,0.941-2.947C471.602,589.866,471.295,590.841,470.978,591.827z
				"/>
			<path fill="#1C75BC" d="M470.978,591.827c-0.487,1.542-0.964,3.095-1.451,4.693C470.003,594.922,470.479,593.369,470.978,591.827
				z"/>
			<path fill="#1C75BC" d="M469.13,597.835c-0.261,0.885-0.521,1.78-0.794,2.688C468.597,599.604,468.857,598.72,469.13,597.835z"/>
			<path fill="#1C75BC" d="M468.2,600.976c-0.192,0.714-0.408,1.439-0.623,2.188C467.781,602.427,467.996,601.689,468.2,600.976z"/>
			<path fill="#1C75BC" d="M467.123,604.784c-0.124,0.465-0.261,0.941-0.396,1.417C466.862,605.726,466.987,605.249,467.123,604.784
				z"/>
			<path fill="#1C75BC" d="M444.825,616.053c0.034,0,0.079,0,0.124,0c0.499-0.012,0.998-0.022,1.485-0.034c0.091,0,0.193,0,0.283,0
				c0.533-0.012,1.066-0.034,1.588-0.045c0.022,0,0.057,0,0.09,0c0.329-0.012,0.646-0.023,0.964-0.034
				c0.136-0.012,0.272-0.012,0.408-0.022c0.431-0.012,0.861-0.034,1.27-0.057c0.227-0.012,0.442-0.023,0.657-0.034
				c0.204-0.012,0.408-0.022,0.602-0.046c0.283-0.011,0.566-0.034,0.839-0.057c0.181-0.011,0.362-0.034,0.532-0.045
				c0.307-0.022,0.601-0.057,0.885-0.079c0.136-0.012,0.261-0.023,0.396-0.046c0.317-0.034,0.646-0.067,0.952-0.113
				c0.046-0.012,0.103-0.012,0.159-0.022c0.317-0.046,0.611-0.091,0.906-0.136c0.08-0.012,0.17-0.034,0.25-0.046
				c0.306-0.057,0.612-0.113,0.884-0.182c5.736-1.326,8.185-4.104,8.185-7.232c0.147-0.544,0.295-1.088,0.442-1.621
				c0.136-0.476,0.272-0.952,0.396-1.417c0.159-0.544,0.307-1.088,0.454-1.621c0.215-0.748,0.431-1.474,0.623-2.188
				c0.057-0.147,0.091-0.307,0.136-0.453c0.272-0.907,0.533-1.803,0.794-2.688c0.136-0.441,0.261-0.884,0.396-1.314
				c0.487-1.599,0.964-3.151,1.451-4.693c0.317-0.986,0.624-1.961,0.941-2.947c1.065-3.288,2.188-6.632,3.435-10.305
				c0.249-0.726,0.499-1.463,0.76-2.211c0.261-0.759,0.521-1.541,0.793-2.335c52.929,4.863,67.666,20.484,67.666,20.484
				l-44.518,17.753c0,0,35.88,43.247,34.451,51.727c-18.308-10.305-62.95-19.43-90.758-18.965
				c-31.096,0.578-59.356-0.521-57.373-17.175c0,0,0.295-0.93,0.885-2.664c0-0.067,0.034-0.113,0.079-0.182
				c0.601-0.997,1.463-1.893,2.528-2.675c0.011-0.012,0.022-0.012,0.034-0.022c0.079-0.068,0.181-0.137,0.271-0.193
				c0.317-0.215,0.646-0.431,0.998-0.635c0.124-0.067,0.271-0.147,0.408-0.215c0.215-0.125,0.441-0.25,0.68-0.363
				c0.17-0.079,0.34-0.158,0.499-0.238c0.227-0.102,0.453-0.203,0.691-0.306c0.182-0.079,0.362-0.147,0.556-0.227
				c0.238-0.091,0.487-0.192,0.736-0.283c0.182-0.068,0.374-0.137,0.567-0.193c0.271-0.091,0.532-0.181,0.816-0.271
				c0.181-0.057,0.374-0.113,0.578-0.17c0.294-0.091,0.601-0.17,0.906-0.261c0.182-0.046,0.363-0.091,0.544-0.147
				c0.352-0.091,0.715-0.17,1.066-0.25c0.158-0.033,0.317-0.079,0.476-0.113c0.499-0.113,1.009-0.215,1.53-0.317
				c0.103-0.022,0.216-0.034,0.317-0.057c0.408-0.079,0.828-0.147,1.247-0.215c0.204-0.034,0.408-0.068,0.612-0.103
				c0.34-0.057,0.681-0.113,1.021-0.158c0.227-0.034,0.453-0.068,0.669-0.103c0.374-0.045,0.736-0.091,1.11-0.136
				c0.341-0.046,0.691-0.091,1.043-0.125c0.363-0.045,0.737-0.091,1.1-0.125c0.317-0.033,0.624-0.067,0.941-0.09
				c0.249-0.034,0.51-0.057,0.771-0.08c0.34-0.033,0.681-0.057,1.021-0.091c0.215-0.011,0.431-0.033,0.657-0.045
				c1.338-0.113,2.698-0.204,4.081-0.272c0.091,0,0.182-0.011,0.261-0.011c0.477-0.022,0.964-0.046,1.439-0.068
				c0.08-0.011,0.147-0.011,0.228-0.011C427.038,616.03,436.855,616.178,444.825,616.053z"/>
			<path fill="#1C75BC" d="M387.339,625.008c2.041-6.541,7.426-23.205,13.581-41.195c14.646,2.029,26.651,4.33,36.344,6.699
				c3.604,0.885,6.893,1.78,9.874,2.676c1.542,0.453,2.992,0.918,4.376,1.383c8.967,2.959,14.726,8.514,14.771,13.252
				c0,3.129-2.448,5.906-8.185,7.232c-0.271,0.068-0.578,0.125-0.884,0.182c-0.08,0.012-0.17,0.034-0.25,0.046
				c-0.295,0.045-0.589,0.09-0.906,0.136c-0.057,0.011-0.113,0.011-0.159,0.022c-0.306,0.046-0.635,0.079-0.952,0.113
				c-0.136,0.022-0.261,0.034-0.396,0.046c-0.284,0.022-0.578,0.057-0.885,0.079c-0.17,0.011-0.352,0.034-0.532,0.045
				c-0.272,0.022-0.556,0.046-0.839,0.057c-0.193,0.023-0.397,0.034-0.602,0.046c-0.215,0.011-0.431,0.022-0.657,0.034
				c-0.408,0.022-0.839,0.045-1.27,0.057c-0.136,0.011-0.272,0.011-0.408,0.022c-0.317,0.011-0.635,0.022-0.964,0.034
				c-0.033,0-0.067,0-0.09,0c-0.521,0.011-1.055,0.033-1.588,0.045c-0.09,0-0.192,0-0.283,0c-0.487,0.012-0.986,0.022-1.485,0.034
				c-0.045,0-0.09,0-0.124,0c-7.97,0.125-17.787-0.022-27.082,0.386c-0.08,0-0.147,0-0.228,0.011
				c-0.476,0.022-0.963,0.046-1.439,0.068c-0.079,0-0.17,0.011-0.261,0.011c-1.383,0.068-2.743,0.159-4.081,0.272
				c-0.227,0.012-0.442,0.034-0.657,0.045c-0.34,0.034-0.681,0.058-1.021,0.091c-0.261,0.023-0.521,0.046-0.771,0.08
				c-0.317,0.022-0.624,0.057-0.941,0.09c-0.362,0.034-0.736,0.08-1.1,0.125c-0.352,0.034-0.702,0.079-1.043,0.125
				c-0.374,0.045-0.736,0.091-1.11,0.136c-0.216,0.034-0.442,0.068-0.669,0.103c-0.34,0.045-0.681,0.102-1.021,0.158
				c-0.204,0.034-0.408,0.068-0.612,0.103c-0.419,0.067-0.839,0.136-1.247,0.215c-0.102,0.022-0.215,0.034-0.317,0.057
				c-0.521,0.103-1.031,0.204-1.53,0.317c-0.158,0.034-0.317,0.08-0.476,0.113c-0.352,0.08-0.715,0.159-1.066,0.25
				c-0.181,0.057-0.362,0.102-0.544,0.147c-0.306,0.091-0.612,0.17-0.906,0.261c-0.204,0.057-0.397,0.113-0.578,0.17
				c-0.284,0.091-0.545,0.181-0.816,0.271c-0.193,0.057-0.386,0.125-0.567,0.193c-0.249,0.091-0.498,0.192-0.736,0.283
				c-0.193,0.079-0.374,0.147-0.556,0.227c-0.238,0.103-0.465,0.204-0.691,0.306c-0.159,0.08-0.329,0.159-0.499,0.238
				c-0.238,0.113-0.465,0.238-0.68,0.363c-0.137,0.067-0.284,0.147-0.408,0.215c-0.352,0.204-0.681,0.42-0.998,0.635
				c-0.091,0.057-0.192,0.125-0.271,0.193c-0.012,0.011-0.023,0.011-0.034,0.022C388.802,623.115,387.939,624.011,387.339,625.008z"
				/>
			<path fill="#1C75BC" d="M144.472,583.813c6.145,17.99,11.541,34.654,13.581,41.195c-0.125-0.203-0.261-0.407-0.408-0.601
				c-0.034-0.045-0.08-0.102-0.125-0.147c-0.114-0.147-0.216-0.294-0.34-0.431c-0.045-0.045-0.102-0.102-0.147-0.147
				c-0.125-0.136-0.25-0.271-0.385-0.408c-0.045-0.033-0.091-0.079-0.136-0.113c-0.147-0.147-0.294-0.283-0.453-0.408
				c-0.034-0.033-0.08-0.057-0.114-0.09c-0.181-0.147-0.351-0.284-0.544-0.42c-0.022-0.012-0.045-0.034-0.068-0.045
				c-0.215-0.147-0.419-0.295-0.646-0.432c0,0-0.011-0.011-0.022-0.011c-0.329-0.216-0.68-0.408-1.043-0.601
				c-0.17-0.091-0.34-0.17-0.499-0.25c-0.215-0.102-0.419-0.204-0.635-0.306c-0.215-0.091-0.431-0.192-0.657-0.283
				c-0.17-0.068-0.352-0.147-0.544-0.216c-0.249-0.102-0.51-0.204-0.782-0.295c-0.136-0.045-0.272-0.102-0.408-0.147
				c-1.542-0.521-3.231-0.963-5.056-1.349c0,0-0.011,0-0.022,0c-0.454-0.103-0.918-0.192-1.383-0.272
				c-0.022-0.011-0.034-0.011-0.057-0.011c-1.27-0.238-2.596-0.442-3.956-0.612c-0.918-0.125-1.848-0.238-2.789-0.329
				c-6.62-0.68-14-0.873-21.108-0.93c-2.528-0.022-5.033-0.033-7.459-0.045c-0.963,0-1.916,0-2.856-0.012
				c-2.8-0.011-5.464-0.045-7.901-0.113c-0.068,0-0.136,0-0.204-0.011c-0.465-0.012-0.93-0.023-1.383-0.046
				c-0.091,0-0.193,0-0.284-0.011c-0.521-0.023-1.032-0.046-1.519-0.068c-0.125-0.012-0.261-0.012-0.396-0.022
				c-0.238-0.012-0.488-0.034-0.726-0.046c-0.227-0.011-0.442-0.034-0.658-0.045c-0.272-0.022-0.533-0.046-0.793-0.068
				c-0.238-0.022-0.476-0.045-0.703-0.067c-0.159-0.012-0.306-0.034-0.454-0.046c-0.306-0.034-0.612-0.067-0.907-0.113
				c-0.08-0.012-0.159-0.022-0.238-0.034c-0.283-0.034-0.556-0.079-0.828-0.124c-0.091-0.023-0.181-0.034-0.261-0.046
				c-0.306-0.057-0.601-0.113-0.873-0.182c-5.736-1.326-8.219-4.104-8.185-7.232v-0.011c0.057-4.739,5.782-10.282,14.783-13.241
				c3.843-1.292,8.287-2.573,13.399-3.854C117.118,588.268,129.395,585.898,144.472,583.813z"/>
			<path fill="#1C75BC" d="M154.686,621.766c0.227,0.137,0.431,0.284,0.646,0.432c0.022,0.011,0.045,0.033,0.068,0.045
				c0.193,0.136,0.363,0.272,0.544,0.42c0.034,0.033,0.08,0.057,0.114,0.09c0.159,0.125,0.306,0.261,0.453,0.408
				c0.045,0.034,0.091,0.08,0.136,0.113c0.136,0.137,0.261,0.272,0.385,0.408c0.045,0.046,0.102,0.103,0.147,0.147
				c0.125,0.137,0.227,0.283,0.34,0.431c0.045,0.046,0.09,0.103,0.125,0.147c0.147,0.193,0.283,0.397,0.408,0.601
				c0.034,0.068,0.079,0.114,0.079,0.182c0.578,1.734,0.873,2.664,0.873,2.664c1.984,16.653-26.323,17.753-57.373,17.175
				c-27.808-0.465-71.35,11.597-89.658,21.901c-0.034-0.182,0-0.442,0.068-0.794c1.349-6.269,19.022-38.781,24.702-49.119
				c1.088-1.995,1.734-3.163,1.734-3.163l-37.659-19.34c0,0,14.691-15.621,67.609-20.484c2.981,8.615,5.192,15.122,7.403,22.435
				c0.726,2.369,1.451,4.829,2.188,7.481c0.113,0.397,0.227,0.805,0.34,1.213c0.057,0.193,0.113,0.374,0.159,0.567
				c0.193,0.691,0.386,1.371,0.578,2.086v0.011c-0.034,3.129,2.449,5.906,8.185,7.232c0.272,0.068,0.566,0.125,0.873,0.182
				c0.08,0.012,0.17,0.022,0.261,0.046c0.272,0.045,0.544,0.09,0.828,0.124c0.08,0.012,0.159,0.022,0.238,0.034
				c0.294,0.046,0.601,0.079,0.907,0.113c0.147,0.012,0.295,0.034,0.454,0.046c0.227,0.022,0.464,0.045,0.703,0.067
				c0.261,0.022,0.521,0.046,0.793,0.068c0.215,0.011,0.431,0.034,0.658,0.045c0.238,0.012,0.487,0.034,0.726,0.046
				c0.136,0.011,0.272,0.011,0.396,0.022c0.487,0.022,0.998,0.045,1.519,0.068c0.091,0.011,0.193,0.011,0.284,0.011
				c0.453,0.022,0.918,0.034,1.383,0.046c0.068,0.011,0.136,0.011,0.204,0.011c2.437,0.068,5.101,0.103,7.901,0.113
				c0.941,0.012,1.893,0.012,2.856,0.012c2.426,0.012,4.932,0.022,7.459,0.045c7.108,0.068,14.488,0.25,21.108,0.93
				c0.941,0.103,1.871,0.216,2.789,0.329c1.36,0.17,2.687,0.374,3.956,0.612c0.023,0,0.034,0,0.057,0.011
				c0.465,0.08,0.93,0.17,1.383,0.272c0.011,0,0.022,0,0.022,0c1.825,0.386,3.514,0.827,5.056,1.349
				c0.136,0.046,0.272,0.103,0.408,0.147c0.272,0.091,0.533,0.193,0.782,0.295c0.193,0.068,0.375,0.147,0.544,0.216
				c0.227,0.091,0.442,0.192,0.657,0.283c0.215,0.102,0.419,0.204,0.635,0.306c0.159,0.08,0.329,0.159,0.499,0.25
				c0.363,0.192,0.714,0.385,1.043,0.601C154.674,621.755,154.686,621.766,154.686,621.766z"/>
			<path fill="#1C75BC" d="M136.831,617.084c0.941,0.091,1.871,0.204,2.789,0.329C138.702,617.3,137.772,617.187,136.831,617.084z"
				/>
			<path fill="#1C75BC" d="M115.723,616.154c7.108,0.057,14.488,0.25,21.108,0.93C130.211,616.404,122.831,616.223,115.723,616.154z
				"/>
			<path fill="#1C75BC" d="M105.407,616.098c0.941,0.012,1.893,0.012,2.856,0.012C107.3,616.109,106.348,616.109,105.407,616.098z"
				/>
			<path fill="#1C75BC" d="M272.696,576.467c-56.25,0-97.922,3.061-128.224,7.346c-15.077,2.086-27.354,4.455-37.194,6.903
				c-5.113,1.281-9.557,2.563-13.399,3.854c-9.001,2.959-14.726,8.502-14.783,13.241c0-4.354-18.909-58.03-19.056-58.03
				c-4.24-13.048-4.364-20.87,11.291-29.101c3.752-1.972,8.888-3.979,15.258-5.929c33.907-10.429,102.91-19.815,186.107-19.815
				c2.415,0,4.829,0.012,7.232,0.034c14.045,0.091,27.671,0.441,40.753,1.031c5.611,0.249,11.121,0.533,16.528,0.873
				c52.351,3.186,94.715,9.941,119.643,17.288c6.824,2.018,12.346,4.069,16.403,6.109c0.272,0.137,0.545,0.272,0.794,0.408
				c16.438,8.639,15.485,16.835,10.622,31.107c-1.031,3.015-2.233,6.291-3.48,9.919c-1.405,4.115-2.652,7.708-3.82,11.041
				c-0.158,0.408-0.306,0.873-0.465,1.281c-0.271,0.794-0.532,1.576-0.793,2.335c-0.261,0.748-0.511,1.485-0.76,2.211
				c-1.247,3.673-2.369,7.017-3.435,10.305c-0.317,0.975-0.635,1.961-0.941,2.947c-0.499,1.542-0.975,3.095-1.451,4.693
				c-0.136,0.431-0.261,0.873-0.396,1.314c-0.272,0.885-0.533,1.769-0.794,2.688c-0.045,0.146-0.079,0.306-0.136,0.453
				c-0.204,0.714-0.419,1.451-0.623,2.188c-0.147,0.533-0.295,1.077-0.454,1.621c-0.136,0.465-0.261,0.941-0.396,1.417
				c-0.147,0.533-0.295,1.077-0.442,1.621c-0.045-4.738-5.804-10.293-14.771-13.252c-1.384-0.465-2.834-0.93-4.376-1.383
				c-2.981-0.896-6.27-1.791-9.874-2.676c-9.692-2.369-21.697-4.67-36.344-6.699c-21.652-3.061-49.131-5.498-83.56-6.644
				c-2.188-0.067-4.409-0.136-6.654-0.192c-9.511-0.261-19.532-0.431-30.098-0.487C277.99,576.478,275.371,576.467,272.696,576.467z
				"/>
			<path fill="#1C75BC" d="M12.042,666.136c1.304-6.337,19-38.804,24.702-49.119C31.064,627.354,13.391,659.867,12.042,666.136z"/>
		</g>
		<g>
			<path fill="none" stroke="#000000" stroke-miterlimit="10" d="M415.815,616.528c0.091,0,0.182-0.011,0.261-0.011"/>
			<path fill="none" stroke="#000000" stroke-miterlimit="10" d="M444.825,616.053c0.034,0,0.079,0,0.124,0"/>
			<path fill="none" stroke="#000000" stroke-miterlimit="10" d="M417.516,616.449c0.08-0.011,0.147-0.011,0.228-0.011"/>
			<path fill="none" stroke="#000000" stroke-miterlimit="10" d="M417.743,616.438c9.295-0.408,19.112-0.261,27.082-0.386"/>
			<path fill="none" stroke="#000000" stroke-miterlimit="10" d="M416.076,616.518c0.477-0.022,0.964-0.046,1.439-0.068"/>
			<path fill="none" stroke="#000000" stroke-miterlimit="10" d="M444.949,616.053c0.499-0.012,0.998-0.022,1.485-0.034"/>
			<path fill="none" stroke="#000000" stroke-miterlimit="10" d="M448.306,615.974c-0.521,0.011-1.055,0.033-1.588,0.045"/>
			<path fill="none" stroke="#000000" stroke-miterlimit="10" d="M446.718,616.019c-0.09,0-0.192,0-0.283,0"/>
			<path fill="none" stroke="#000000" stroke-miterlimit="10" d="M437.264,590.512c3.604,0.885,6.893,1.78,9.874,2.676"/>
			<path fill="none" stroke="#000000" stroke-miterlimit="10" d="M144.472,583.813c-15.077,2.086-27.354,4.455-37.194,6.903"/>
			<path fill="none" stroke="#000000" stroke-miterlimit="10" d="M411.734,616.801c1.338-0.113,2.698-0.204,4.081-0.272"/>
			<path fill="none" stroke="#000000" stroke-miterlimit="10" d="M310.706,576.977c2.245,0.057,4.467,0.125,6.654,0.192"/>
			<path fill="none" stroke="#000000" stroke-miterlimit="10" d="M108.264,616.109c-0.963,0-1.916,0-2.856-0.012"/>
			<path fill="none" stroke="#000000" stroke-miterlimit="10" d="M139.62,617.413c-0.918-0.113-1.848-0.227-2.789-0.329
				c-6.62-0.68-14-0.861-21.108-0.93"/>
			<path fill="none" stroke="#000000" stroke-miterlimit="10" d="M407.245,617.231c0.363-0.045,0.737-0.091,1.1-0.125"/>
			<path fill="none" stroke="#000000" stroke-miterlimit="10" d="M406.202,617.356c0.341-0.046,0.691-0.091,1.043-0.125"/>
			<path fill="none" stroke="#000000" stroke-miterlimit="10" d="M405.092,617.492c0.374-0.045,0.736-0.091,1.11-0.136"/>
			<path fill="none" stroke="#000000" stroke-miterlimit="10" d="M404.423,617.595c0.227-0.034,0.453-0.068,0.669-0.103"/>
			<path fill="none" stroke="#000000" stroke-miterlimit="10" d="M409.286,617.017c0.249-0.034,0.51-0.057,0.771-0.08"/>
			<path fill="none" stroke="#000000" stroke-miterlimit="10" d="M411.077,616.846c0.215-0.011,0.431-0.033,0.657-0.045"/>
			<path fill="none" stroke="#000000" stroke-miterlimit="10" d="M410.057,616.937c0.34-0.033,0.681-0.057,1.021-0.091"/>
			<path fill="none" stroke="#000000" stroke-miterlimit="10" d="M476.906,574.029c0.159-0.408,0.307-0.873,0.465-1.281
				c1.168-3.333,2.415-6.926,3.82-11.041c1.247-3.628,2.449-6.904,3.48-9.919c4.863-14.272,5.815-22.469-10.622-31.107
				c-0.249-0.136-0.521-0.271-0.794-0.408"/>
			<path fill="none" stroke="#000000" stroke-miterlimit="10" d="M403.402,617.753c0.34-0.057,0.681-0.113,1.021-0.158"/>
			<path fill="none" stroke="#000000" stroke-miterlimit="10" d="M456.853,514.163c6.824,2.018,12.346,4.069,16.403,6.109"/>
			<path fill="none" stroke="#000000" stroke-miterlimit="10" d="M467.123,604.784c-0.136,0.465-0.261,0.941-0.396,1.417"/>
			<path fill="none" stroke="#000000" stroke-miterlimit="10" d="M468.2,600.976c-0.204,0.714-0.419,1.451-0.623,2.188"/>
			<path fill="none" stroke="#000000" stroke-miterlimit="10" d="M469.13,597.835c-0.272,0.885-0.533,1.769-0.794,2.688"/>
			<path fill="none" stroke="#000000" stroke-miterlimit="10" d="M471.919,588.88c-0.317,0.975-0.635,1.961-0.941,2.947
				c-0.499,1.542-0.975,3.095-1.451,4.693"/>
			<path fill="none" stroke="#000000" stroke-miterlimit="10" d="M476.113,576.364c-0.261,0.748-0.511,1.485-0.76,2.211"/>
			<path fill="none" stroke="#000000" stroke-miterlimit="10" d="M476.906,574.029c-0.271,0.794-0.532,1.576-0.793,2.335
				c-0.261,0.748-0.511,1.485-0.76,2.211c-1.247,3.673-2.369,7.017-3.435,10.305c-0.317,0.986-0.624,1.961-0.941,2.947
				c-0.487,1.542-0.964,3.095-1.451,4.693c-0.136,0.431-0.261,0.873-0.396,1.314c-0.261,0.885-0.521,1.78-0.794,2.688
				c-0.045,0.146-0.079,0.306-0.136,0.453c-0.192,0.714-0.408,1.439-0.623,2.188c-0.147,0.533-0.295,1.077-0.454,1.621
				c-0.124,0.465-0.261,0.941-0.396,1.417c-0.147,0.533-0.295,1.077-0.442,1.621"/>
			<path fill="none" stroke="#000000" stroke-miterlimit="10" d="M317.36,577.169c34.429,1.146,61.907,3.583,83.56,6.644"/>
			<path fill="none" stroke="#000000" stroke-miterlimit="10" d="M401.226,618.127c0.103-0.022,0.216-0.034,0.317-0.057"/>
			<path fill="none" stroke="#000000" stroke-miterlimit="10" d="M402.79,617.855c0.204-0.034,0.408-0.068,0.612-0.103"/>
			<path fill="none" stroke="#000000" stroke-miterlimit="10" d="M401.543,618.07c0.408-0.079,0.828-0.147,1.247-0.215"/>
			<path fill="none" stroke="#000000" stroke-miterlimit="10" d="M409.286,617.017c-0.317,0.022-0.624,0.057-0.941,0.09"/>
			<path fill="none" stroke="#000000" stroke-miterlimit="10" d="M94.116,615.849c0.487,0.022,0.998,0.045,1.519,0.068"/>
			<path fill="none" stroke="#000000" stroke-miterlimit="10" d="M95.635,615.917c0.091,0.011,0.193,0.011,0.284,0.011"/>
			<path fill="none" stroke="#000000" stroke-miterlimit="10" d="M79.096,607.812c0.057-4.739,5.782-10.282,14.783-13.241
				c3.843-1.292,8.287-2.573,13.399-3.854"/>
			<path fill="none" stroke="#000000" stroke-miterlimit="10" d="M79.096,607.822c-0.034,3.129,2.449,5.906,8.185,7.232
				c0.272,0.068,0.566,0.125,0.873,0.182c0.08,0.012,0.17,0.022,0.261,0.046c0.272,0.045,0.544,0.09,0.828,0.124
				c0.08,0.012,0.159,0.022,0.238,0.034c0.294,0.046,0.601,0.079,0.907,0.113c0.147,0.012,0.295,0.034,0.454,0.046
				c0.227,0.022,0.464,0.045,0.703,0.067c0.261,0.022,0.521,0.046,0.793,0.068c0.215,0.011,0.431,0.034,0.658,0.045
				c0.238,0.012,0.487,0.034,0.726,0.046c0.136,0.011,0.272,0.011,0.396,0.022"/>
			<path fill="none" stroke="#000000" stroke-miterlimit="10" d="M97.506,615.984c2.437,0.068,5.101,0.103,7.901,0.113
				c0.941,0.012,1.893,0.012,2.856,0.012c2.426,0.012,4.932,0.022,7.459,0.045c7.108,0.057,14.488,0.25,21.108,0.93
				c0.941,0.091,1.871,0.204,2.789,0.329c1.36,0.17,2.687,0.374,3.956,0.612"/>
			<path fill="none" stroke="#000000" stroke-miterlimit="10" d="M95.919,615.928c0.453,0.022,0.918,0.034,1.383,0.046"/>
			<path fill="none" stroke="#000000" stroke-miterlimit="10" d="M143.576,618.025c0.023,0,0.034,0,0.057,0.011"/>
			<path fill="none" stroke="#000000" stroke-miterlimit="10" d="M97.302,615.974c0.068,0.011,0.136,0.011,0.204,0.011"/>
			<path fill="none" stroke="#000000" stroke-miterlimit="10" d="M68.428,574.029c2.981,8.615,5.192,15.122,7.403,22.435
				c0.726,2.369,1.451,4.829,2.188,7.481"/>
			<path fill="none" stroke="#000000" stroke-miterlimit="10" d="M60.221,550.382c0.034,0.068,0.057,0.147,0.068,0.216"/>
			<path fill="none" stroke="#000000" stroke-miterlimit="10" d="M79.096,607.812c-0.192-0.715-0.385-1.395-0.578-2.086
				c-0.045-0.193-0.102-0.374-0.159-0.567c-0.113-0.408-0.227-0.815-0.34-1.213"/>
			<path fill="none" stroke="#000000" stroke-miterlimit="10" d="M79.096,607.822v-0.011c0-4.354-18.909-58.03-19.056-58.03"/>
			<path fill="none" stroke="#000000" stroke-miterlimit="10" d="M60.085,549.939c0.034,0.103,0.08,0.25,0.136,0.442
				c0.022,0.068,0.045,0.136,0.068,0.216c0.102,0.306,0.238,0.702,0.408,1.201"/>
			<path fill="none" stroke="#000000" stroke-miterlimit="10" d="M60.085,549.939c-0.022-0.057-0.034-0.102-0.045-0.158
				c-4.24-13.048-4.364-20.87,11.291-29.101c3.752-1.972,8.888-3.979,15.258-5.929"/>
			<path fill="none" stroke="#000000" stroke-miterlimit="10" d="M145.016,618.309c-0.454-0.103-0.918-0.192-1.383-0.272"/>
			<path fill="none" stroke="#000000" stroke-miterlimit="10" d="M154.663,621.755c0.011,0,0.022,0.011,0.022,0.011
				c0.227,0.137,0.431,0.284,0.646,0.432c0.022,0.011,0.045,0.033,0.068,0.045c0.193,0.136,0.363,0.272,0.544,0.42
				c0.034,0.033,0.08,0.057,0.114,0.09c0.159,0.125,0.306,0.261,0.453,0.408c0.045,0.034,0.091,0.08,0.136,0.113
				c0.136,0.137,0.261,0.272,0.385,0.408c0.045,0.046,0.102,0.103,0.147,0.147c0.125,0.137,0.227,0.283,0.34,0.431
				c0.045,0.046,0.09,0.103,0.125,0.147c0.147,0.193,0.283,0.397,0.408,0.601"/>
			<path fill="none" stroke="#000000" stroke-miterlimit="10" d="M153.62,621.154c0.363,0.192,0.714,0.385,1.043,0.601"/>
			<path fill="none" stroke="#000000" stroke-miterlimit="10" d="M153.121,620.904c0.159,0.08,0.329,0.159,0.499,0.25"/>
			<path fill="none" stroke="#000000" stroke-miterlimit="10" d="M158.053,625.008c0.034,0.068,0.079,0.114,0.079,0.182
				c0.578,1.734,0.873,2.664,0.873,2.664c1.984,16.653-26.323,17.753-57.373,17.175c-27.808-0.465-71.35,11.597-89.658,21.901"/>
			<path fill="none" stroke="#000000" stroke-miterlimit="10" d="M68.428,574.029c-52.917,4.863-67.609,20.484-67.609,20.484
				l37.659,19.34"/>
			<path fill="none" stroke="#000000" stroke-miterlimit="10" d="M152.486,620.599c0.215,0.102,0.419,0.204,0.635,0.306"/>
			<path fill="none" stroke="#000000" stroke-miterlimit="10" d="M36.744,617.017c-5.702,10.315-23.398,42.782-24.702,49.119"/>
			<path fill="none" stroke="#000000" stroke-miterlimit="10" d="M38.478,613.854c0,0-0.646,1.168-1.734,3.163
				c-5.679,10.338-23.353,42.851-24.702,49.119c-0.068,0.352-0.102,0.612-0.068,0.794"/>
			<path fill="none" stroke="#000000" stroke-miterlimit="10" d="M145.039,618.309c1.825,0.386,3.514,0.827,5.056,1.349"/>
			<path fill="none" stroke="#000000" stroke-miterlimit="10" d="M145.016,618.309c0.011,0,0.022,0,0.022,0"/>
			<path fill="none" stroke="#000000" stroke-miterlimit="10" d="M144.472,583.813c6.145,17.99,11.541,34.654,13.581,41.195"/>
			<path fill="none" stroke="#000000" stroke-miterlimit="10" d="M151.829,620.315c0.227,0.091,0.442,0.192,0.657,0.283"/>
			<path fill="none" stroke="#000000" stroke-miterlimit="10" d="M151.285,620.1c0.193,0.068,0.375,0.147,0.544,0.216"/>
			<path fill="none" stroke="#000000" stroke-miterlimit="10" d="M150.502,619.805c0.272,0.091,0.533,0.193,0.782,0.295"/>
			<path fill="none" stroke="#000000" stroke-miterlimit="10" d="M150.095,619.657c0.136,0.046,0.272,0.103,0.408,0.147"/>
			<path fill="none" stroke="#000000" stroke-miterlimit="10" d="M437.264,590.512c-9.692-2.369-21.697-4.67-36.344-6.699"/>
			<path fill="none" stroke="#000000" stroke-miterlimit="10" d="M394.005,620.134c0.238-0.091,0.487-0.192,0.736-0.283"/>
			<path fill="none" stroke="#000000" stroke-miterlimit="10" d="M394.741,619.851c0.182-0.068,0.374-0.137,0.567-0.193"/>
			<path fill="none" stroke="#000000" stroke-miterlimit="10" d="M395.309,619.657c0.271-0.091,0.532-0.181,0.816-0.271"/>
			<path fill="none" stroke="#000000" stroke-miterlimit="10" d="M396.703,619.216c0.294-0.091,0.601-0.17,0.906-0.261"/>
			<path fill="none" stroke="#000000" stroke-miterlimit="10" d="M396.125,619.386c0.181-0.057,0.374-0.113,0.578-0.17"/>
			<path fill="none" stroke="#000000" stroke-miterlimit="10" d="M392.758,620.666c-0.159,0.08-0.329,0.159-0.499,0.238"/>
			<path fill="none" stroke="#000000" stroke-miterlimit="10" d="M397.609,618.955c0.182-0.046,0.363-0.091,0.544-0.147"/>
			<path fill="none" stroke="#000000" stroke-miterlimit="10" d="M392.259,620.904c-0.238,0.113-0.465,0.238-0.68,0.363"/>
			<path fill="none" stroke="#000000" stroke-miterlimit="10" d="M393.449,620.36c-0.238,0.103-0.465,0.204-0.691,0.306"/>
			<path fill="none" stroke="#000000" stroke-miterlimit="10" d="M391.171,621.482c0.124-0.067,0.271-0.147,0.408-0.215"/>
			<path fill="none" stroke="#000000" stroke-miterlimit="10" d="M390.173,622.117c0.317-0.215,0.646-0.431,0.998-0.635"/>
			<path fill="none" stroke="#000000" stroke-miterlimit="10" d="M476.906,574.029c52.929,4.863,67.666,20.484,67.666,20.484
				l-44.518,17.753c0,0,35.88,43.247,34.451,51.727c-18.308-10.305-62.95-19.43-90.758-18.965
				c-31.096,0.578-59.356-0.521-57.373-17.175c0,0,0.295-0.93,0.885-2.664c0-0.067,0.034-0.113,0.079-0.182"/>
			<path fill="none" stroke="#000000" stroke-miterlimit="10" d="M394.005,620.134c-0.193,0.079-0.374,0.147-0.556,0.227"/>
			<path fill="none" stroke="#000000" stroke-miterlimit="10" d="M456.853,514.163c-24.928-7.347-67.292-14.103-119.643-17.288"/>
			<path fill="none" stroke="#000000" stroke-miterlimit="10" d="M320.682,496.002c5.611,0.249,11.121,0.533,16.528,0.873"/>
			<path fill="none" stroke="#000000" stroke-miterlimit="10" d="M310.706,576.977c-9.511-0.261-19.532-0.431-30.098-0.487
				c-2.619-0.012-5.237-0.022-7.913-0.022c-56.25,0-97.922,3.061-128.224,7.346"/>
			<path fill="none" stroke="#000000" stroke-miterlimit="10" d="M466.284,607.822c-0.045-4.738-5.804-10.293-14.771-13.252
				c-1.384-0.465-2.834-0.93-4.376-1.383"/>
			<path fill="none" stroke="#000000" stroke-miterlimit="10" d="M398.153,618.808c0.352-0.091,0.715-0.17,1.066-0.25"/>
			<path fill="none" stroke="#000000" stroke-miterlimit="10" d="M387.339,625.008c2.041-6.541,7.426-23.205,13.581-41.195"/>
			<path fill="none" stroke="#000000" stroke-miterlimit="10" d="M399.22,618.558c0.158-0.033,0.317-0.079,0.476-0.113"/>
			<path fill="none" stroke="#000000" stroke-miterlimit="10" d="M401.226,618.127c-0.521,0.103-1.031,0.204-1.53,0.317"/>
			<path fill="none" stroke="#000000" stroke-miterlimit="10" d="M466.284,607.822c0,3.129-2.448,5.906-8.185,7.232
				c-0.271,0.068-0.578,0.125-0.884,0.182c-0.08,0.012-0.17,0.034-0.25,0.046c-0.295,0.045-0.589,0.09-0.906,0.136
				c-0.057,0.011-0.113,0.011-0.159,0.022c-0.306,0.046-0.635,0.079-0.952,0.113c-0.136,0.022-0.261,0.034-0.396,0.046
				c-0.284,0.022-0.578,0.057-0.885,0.079c-0.17,0.011-0.352,0.034-0.532,0.045c-0.272,0.022-0.556,0.046-0.839,0.057
				c-0.193,0.023-0.397,0.034-0.602,0.046c-0.215,0.011-0.431,0.022-0.657,0.034c-0.408,0.022-0.839,0.045-1.27,0.057
				c-0.136,0.011-0.272,0.011-0.408,0.022c-0.317,0.011-0.635,0.022-0.964,0.034c-0.033,0-0.067,0-0.09,0"/>
			<path fill="none" stroke="#000000" stroke-miterlimit="10" d="M320.682,496.002c-13.082-0.59-26.708-0.94-40.753-1.031
				c-2.403-0.022-4.818-0.034-7.232-0.034c-83.197,0-152.2,9.387-186.107,19.815"/>
			<path fill="none" stroke="#000000" stroke-miterlimit="10" d="M387.339,625.008c0.601-0.997,1.463-1.893,2.528-2.675
				c0.011-0.012,0.022-0.012,0.034-0.022c0.079-0.068,0.181-0.137,0.271-0.193"/>
		</g>
	</g>
</g>
<path fill-rule="evenodd" clip-rule="evenodd" fill="#1C75BC" d="M339.158,380.112c-0.647-2.264-1.217-4.373-1.855-6.462
	c-3.232-10.581-10.765-14.226-22.451-14.283c-2.021-0.01-4.064-0.018-6.062-0.255c-4.241-0.505-7.653-2.663-11.331-5.556
	c0,3.446-0.054,6.384,0.013,9.32c0.073,3.259,1.581,4.985,5.068,5.408c2.892,0.348,5.839,0.246,8.749,0.492
	c3.791,0.322,7.654,0.457,11.334,1.279c5.625,1.256,9.515,4.962,8.902,9.889c-18.808,0.003-38.516,0.003-57.658,0.003
	c0-19.463,0-334.14,0-353.378c-4.631,4.287-10.14,12.925-9.372,13.333c0.597,0.317,0.129,257.485-0.094,278.309
	c-0.301,28.192-0.526,61.292-0.554,61.716c-1.672,0-2.691,0-3.285,0c0.016,0-0.161,0-0.738,0c-0.594,0-1.607,0-3.275,0
	c0-7.536,0-14.893,0-22.807c-11.229,6.222-8.94,5.679-9.783,22.843c-2.309,0-3.555,0-4.19,0c0.005,0-0.14,0-0.586,0
	c-0.643,0-1.913,0-4.281,0c0-17.818,0-289.969,0-307.966c-5.006,4.79-5.155,9.243-9.866,13.75
	c0.94,0.286,0.538,288.114,0.259,300.384c0,0.084,0.002,0.192,0.012,0.318l0,0l-0.146,19.857c0,0-2.07,0.118-2.74-0.021
	c-29.405-6.062-45.305-39.682-45.305-39.682s10.64,53.036,55.193,53.101c0.083,0.177,0.137,0.189,0.151,0.003
	c1.9-24.656,1.777-28.078,2.185-29.669c29.147,0,31.721,0,95.973,0l6.698-0.129c1.699,0,3.391,0,5.182,0c0-3.346,0-6.479,0-9.798
	C343.18,380.112,341.18,380.112,339.158,380.112z M225.021,406.284l-0.007-0.006c0.029,0.003,0.056,0.006,0.085,0.006H225.021z"/>
<g>
	<path fill-rule="evenodd" clip-rule="evenodd" fill="#1C75BC" d="M255.361,414.315c1.986,2.164,4.008,4.369,6.067,6.614
		c2.183-2.14,4.323-4.239,6.336-6.213c-2.011-2.227-4.029-4.459-5.936-6.567C259.489,410.379,257.319,412.447,255.361,414.315z"/>
	<path fill-rule="evenodd" clip-rule="evenodd" fill="#1C75BC" d="M255.409,401.645c1.879,1.938,3.932,4.056,6.083,6.275
		c2.237-2.25,4.359-4.383,6.609-6.645c-2.008-1.936-4.201-4.051-6.456-6.226C259.467,397.354,257.453,399.483,255.409,401.645z"/>
</g>
<path fill-rule="evenodd" clip-rule="evenodd" fill="#1C75BC" d="M330.074,346.263c-1.739-1.661-3.707-3.542-5.769-5.511
	c-1.963,2.081-3.823,4.055-5.369,5.691c1.871,2.072,3.607,4.003,5.458,6.051C326.292,350.416,328.123,348.403,330.074,346.263z"/>
<g>
	<path fill-rule="evenodd" clip-rule="evenodd" fill="#1C75BC" d="M373.543,163.562c-1.154,0-2.298,0.045-3.434,0.132
		c22.805,1.752,40.765,20.812,40.765,44.068c0,23.254-17.96,42.313-40.765,44.067c1.136,0.087,2.279,0.132,3.434,0.132
		c24.413,0,44.201-19.789,44.201-44.199C417.744,183.351,397.956,163.562,373.543,163.562z"/>
	<polygon fill-rule="evenodd" clip-rule="evenodd" fill="#1C75BC" points="382.807,216.217 377.5,212.98 373.854,218.016 
		373.076,211.848 366.866,212.139 371.204,207.685 367.105,203.011 373.29,203.625 374.391,197.507 377.769,202.726 
		383.236,199.771 381.261,205.665 386.981,208.098 381.143,210.229 	"/>
</g>
<g>
	<path fill="#FFFFFF" d="M128.927,553.717c0.059,0.264-0.356,0.494-1.243,0.692l-1.444,0.322c-0.396,0.089-0.72,0.129-0.969,0.12
		c-0.25-0.009-0.451-0.088-0.604-0.238l-6.513-7.327l-0.079,0.045l1.792,8.023c0.114,0.509-0.33,0.875-1.33,1.098l-0.85,0.19
		c-0.963,0.215-1.501,0.068-1.615-0.44l-3.797-16.993c-0.114-0.509,0.311-0.871,1.274-1.086l0.85-0.189
		c1-0.224,1.558-0.081,1.671,0.427l1.775,7.944l0.091,0.008l2.736-9.312c0.055-0.196,0.189-0.351,0.402-0.463
		c0.213-0.111,0.508-0.21,0.886-0.294l1.189-0.266c0.906-0.203,1.387-0.182,1.441,0.064c0.031,0.141,0.006,0.339-0.075,0.597
		l-3.134,9.262l7.262,7.354C128.801,553.423,128.896,553.577,128.927,553.717z"/>
	<path fill="#FFFFFF" d="M130.44,553.023l-3.369-17.084c-0.101-0.511,0.333-0.862,1.301-1.053l0.939-0.186
		c0.949-0.188,1.474-0.024,1.575,0.486l1.351,6.85l5.779-1.14l-1.351-6.85c-0.101-0.512,0.333-0.862,1.301-1.054l0.911-0.18
		c0.968-0.19,1.502-0.03,1.603,0.48l3.369,17.084c0.101,0.512-0.333,0.862-1.301,1.054l-0.911,0.18
		c-0.968,0.19-1.502,0.03-1.603-0.481l-1.429-7.245l-5.779,1.14l1.429,7.245c0.101,0.512-0.324,0.861-1.272,1.048l-0.939,0.186
		C131.075,553.694,130.541,553.535,130.44,553.023z"/>
	<path fill="#FFFFFF" d="M145.807,550.26c-0.009-0.053-0.017-0.206-0.021-0.461l1.751-17.862c0.038-0.462,0.515-0.772,1.43-0.93
		l1.516-0.262c0.915-0.157,1.477-0.026,1.687,0.394l7.6,16.25c0.081,0.241,0.125,0.389,0.135,0.441
		c0.061,0.354-0.299,0.599-1.081,0.733l-1.144,0.197c-0.82,0.142-1.297,0.051-1.431-0.273l-1.542-3.481l-4.976,0.858l-0.288,3.796
		c-0.019,0.351-0.399,0.589-1.143,0.717l-1.144,0.197C146.317,550.719,145.868,550.614,145.807,550.26z M153.678,542.284
		l-2.611-5.923c-0.231-0.544-0.454-1.152-0.668-1.827l-0.143,0.024c0.023,0.708,0.017,1.356-0.018,1.945l-0.449,6.45
		L153.678,542.284z"/>
	<path fill="#FFFFFF" d="M162.112,547.766c-0.176-0.128-0.291-0.369-0.345-0.725l-2.583-16.947c-0.079-0.516,0.37-0.848,1.345-0.996
		l0.889-0.136c0.516-0.078,0.898-0.073,1.147,0.017c0.249,0.089,0.393,0.267,0.434,0.533l2.279,14.949l4.877-0.743
		c0.268-0.041,0.473,0.022,0.616,0.191c0.143,0.17,0.245,0.449,0.304,0.84l0.105,0.693c0.06,0.391,0.046,0.688-0.04,0.892
		c-0.086,0.204-0.264,0.327-0.531,0.368l-7.716,1.176C162.548,547.931,162.288,547.894,162.112,547.766z"/>
	<path fill="#FFFFFF" d="M173.452,545.571l-2.384-17.248c-0.074-0.534,0.378-0.869,1.355-1.004l0.949-0.131
		c0.958-0.133,1.474,0.068,1.548,0.603l2.384,17.248c0.074,0.534-0.368,0.867-1.326,1l-0.949,0.131
		C174.052,546.305,173.526,546.105,173.452,545.571z"/>
	<path fill="#FFFFFF" d="M181.241,545.013c-0.172-0.132-0.281-0.376-0.325-0.733l-2.114-17.013
		c-0.064-0.517,0.393-0.836,1.372-0.958l0.893-0.11c0.519-0.064,0.9-0.049,1.146,0.048c0.246,0.096,0.385,0.277,0.418,0.545
		l1.865,15.006l4.896-0.608c0.269-0.033,0.472,0.037,0.61,0.21c0.139,0.173,0.232,0.456,0.281,0.848l0.086,0.695
		c0.048,0.393,0.027,0.689-0.065,0.891c-0.092,0.202-0.272,0.319-0.541,0.353l-7.746,0.963
		C181.673,545.19,181.414,545.146,181.241,545.013z"/>
	<path fill="#FFFFFF" d="M196.576,542.699l-1.819-17.317c-0.056-0.536,0.406-0.855,1.387-0.959l0.953-0.1
		c0.962-0.101,1.471,0.116,1.527,0.652l1.818,17.317c0.057,0.536-0.396,0.855-1.358,0.956l-0.952,0.1
		C197.151,543.452,196.632,543.235,196.576,542.699z"/>
	<path fill="#FFFFFF" d="M203.924,541.916l-1.527-17.346c-0.046-0.519,0.423-0.822,1.406-0.908l0.751-0.066
		c0.347-0.03,0.63-0.01,0.85,0.061c0.22,0.071,0.409,0.234,0.567,0.491l6.593,9.377c0.266,0.374,0.622,1.001,1.069,1.882l0.14-0.066
		c-0.217-0.702-0.353-1.367-0.408-1.994l-0.851-9.666c-0.045-0.519,0.423-0.822,1.406-0.908l0.578-0.051
		c0.982-0.087,1.497,0.13,1.542,0.648l1.527,17.346c0.046,0.52-0.423,0.822-1.406,0.908l-0.578,0.051
		c-0.347,0.031-0.64,0.012-0.879-0.058c-0.239-0.068-0.427-0.224-0.565-0.464l-6.886-9.73c-0.221-0.306-0.531-0.847-0.929-1.623
		l-0.14,0.066c0.212,0.648,0.343,1.251,0.392,1.806l0.875,9.935c0.046,0.52-0.423,0.822-1.406,0.908l-0.578,0.051
		C204.484,542.651,203.97,542.436,203.924,541.916z"/>
	<path fill="#FFFFFF" d="M223.823,540.278l-1.021-15.087l-3.532,0.238c-0.271,0.019-0.47-0.063-0.598-0.243
		s-0.206-0.468-0.233-0.862l-0.047-0.699c-0.026-0.395,0.012-0.689,0.115-0.886s0.29-0.303,0.56-0.321l10.943-0.74
		c0.27-0.019,0.474,0.059,0.611,0.229c0.138,0.171,0.221,0.463,0.249,0.875l0.047,0.699c0.028,0.413-0.015,0.713-0.128,0.9
		c-0.114,0.188-0.305,0.291-0.575,0.309l-3.532,0.239l1.021,15.087c0.035,0.521-0.439,0.813-1.424,0.88l-0.926,0.063
		C224.368,541.024,223.858,540.798,223.823,540.278z"/>
	<path fill="#FFFFFF" d="M234.38,540.1c-0.163-0.145-0.252-0.396-0.271-0.756l-0.845-16.853c-0.018-0.358,0.046-0.618,0.193-0.779
		c0.147-0.159,0.394-0.249,0.742-0.267l8.462-0.424c0.271-0.014,0.469,0.07,0.594,0.253c0.125,0.183,0.198,0.472,0.218,0.866
		l0.035,0.7c0.02,0.396-0.023,0.689-0.13,0.884s-0.295,0.298-0.565,0.312l-5.593,0.28l0.235,4.685l4.985-0.25
		c0.271-0.014,0.468,0.071,0.594,0.254s0.198,0.472,0.218,0.866l0.035,0.699c0.02,0.396-0.023,0.689-0.13,0.884
		s-0.295,0.299-0.565,0.313l-4.985,0.25l0.257,5.114l5.622-0.281c0.251-0.013,0.439,0.067,0.564,0.241s0.198,0.467,0.219,0.88
		l0.035,0.699c0.021,0.413-0.022,0.713-0.129,0.897c-0.107,0.186-0.287,0.284-0.537,0.297l-8.492,0.426
		C234.797,540.308,234.542,540.244,234.38,540.1z"/>
	<path fill="#FFFFFF" d="M259.564,529.504l0.246,7.921c0.021,0.629-0.55,1.15-1.707,1.563c-1.159,0.414-2.395,0.641-3.709,0.682
		c-2.61,0.081-4.573-0.64-5.888-2.163c-1.315-1.522-2.023-3.919-2.125-7.188c-0.101-3.251,0.471-5.691,1.717-7.321
		c1.246-1.63,3.193-2.486,5.842-2.568c0.812-0.025,1.612,0.04,2.401,0.194c0.789,0.155,1.429,0.37,1.921,0.642
		c0.492,0.272,0.743,0.553,0.752,0.84c0.01,0.323-0.16,0.76-0.511,1.311c-0.351,0.55-0.671,0.829-0.961,0.839
		c-0.078,0.002-0.288-0.072-0.631-0.224c-0.344-0.15-0.73-0.278-1.159-0.382c-0.429-0.104-0.944-0.146-1.542-0.127
		c-1.431,0.044-2.449,0.606-3.054,1.686c-0.605,1.08-0.874,2.716-0.805,4.906c0.069,2.228,0.43,3.87,1.083,4.929
		c0.652,1.059,1.616,1.567,2.893,1.528c0.657-0.021,1.216-0.101,1.676-0.241l-0.145-4.661l-1.827,0.057
		c-0.271,0.009-0.467-0.079-0.589-0.265c-0.122-0.185-0.189-0.475-0.201-0.87l-0.022-0.7c-0.012-0.395,0.037-0.688,0.146-0.881
		c0.11-0.192,0.3-0.293,0.571-0.301l4.611-0.144C259.205,528.545,259.544,528.857,259.564,529.504z"/>
	<path fill="#FFFFFF" d="M263.193,538.521l-0.196-17.143c-0.004-0.341,0.075-0.594,0.238-0.757c0.162-0.164,0.418-0.248,0.766-0.252
		l4.672-0.053c3.888-0.045,5.852,1.641,5.891,5.054c0.024,2.139-0.868,3.667-2.676,4.587l0.001,0.107
		c0.778,0.387,1.447,1.358,2.007,2.915l1.801,5.183c0.02,0.054,0.039,0.111,0.06,0.174c0.02,0.063,0.03,0.121,0.031,0.175
		c0.005,0.414-0.516,0.626-1.56,0.638l-0.842,0.01c-0.909,0.011-1.414-0.189-1.516-0.603l-1.655-5.156
		c-0.239-0.608-0.51-1.027-0.813-1.258s-0.763-0.342-1.382-0.335l-1.073,0.013l0.075,6.657c0.007,0.521-0.503,0.787-1.528,0.799
		l-0.783,0.009C263.705,539.296,263.199,539.042,263.193,538.521z M268.97,528.508c0.521-0.007,0.964-0.254,1.326-0.743
		c0.361-0.489,0.538-1.139,0.529-1.947c-0.011-0.862-0.196-1.494-0.559-1.894c-0.363-0.4-0.854-0.598-1.473-0.59l-1.973,0.022
		l0.059,5.175L268.97,528.508z"/>
	<path fill="#FFFFFF" d="M276.353,538.615c0-0.054,0.021-0.206,0.062-0.457l4.88-17.271c0.119-0.448,0.644-0.669,1.572-0.662
		l1.537,0.011c0.929,0.006,1.459,0.235,1.592,0.685l4.607,17.338c0.037,0.252,0.055,0.405,0.055,0.459
		c-0.003,0.359-0.4,0.536-1.193,0.53l-1.161-0.008c-0.832-0.006-1.285-0.18-1.359-0.521l-0.902-3.699l-5.049-0.036l-0.955,3.687
		c-0.08,0.341-0.497,0.509-1.251,0.503l-1.161-0.008C276.773,539.158,276.35,538.976,276.353,538.615z M285.51,532.157l-1.522-6.291
		c-0.132-0.576-0.243-1.215-0.335-1.917l-0.146-0.001c-0.102,0.7-0.223,1.338-0.361,1.912l-1.582,6.269L285.51,532.157z"/>
	<path fill="#FFFFFF" d="M294.663,538.578l0.353-15.117l-3.539-0.083c-0.271-0.006-0.462-0.105-0.573-0.297
		c-0.111-0.19-0.163-0.484-0.153-0.879l0.017-0.701c0.009-0.395,0.073-0.686,0.194-0.872c0.12-0.186,0.315-0.275,0.587-0.269
		l10.965,0.256c0.271,0.006,0.467,0.101,0.589,0.283c0.121,0.183,0.177,0.48,0.167,0.894l-0.016,0.7
		c-0.01,0.414-0.08,0.709-0.21,0.885c-0.13,0.177-0.33,0.263-0.601,0.256l-3.539-0.082l-0.353,15.117
		c-0.013,0.521-0.512,0.77-1.498,0.747l-0.929-0.022C295.139,539.371,294.651,539.1,294.663,538.578z"/>
	<path fill="#FFFFFF" d="M305.213,539.356c-0.149-0.158-0.216-0.417-0.202-0.776l0.666-16.86c0.015-0.359,0.102-0.612,0.263-0.759
		c0.16-0.146,0.415-0.213,0.763-0.199l8.467,0.334c0.271,0.011,0.46,0.113,0.568,0.306c0.108,0.193,0.155,0.488,0.14,0.883
		l-0.028,0.7c-0.016,0.396-0.085,0.685-0.208,0.868c-0.124,0.185-0.32,0.271-0.591,0.26l-5.597-0.221l-0.185,4.687l4.987,0.197
		c0.271,0.011,0.46,0.112,0.568,0.306c0.108,0.192,0.155,0.487,0.14,0.882l-0.028,0.7c-0.016,0.396-0.085,0.685-0.208,0.868
		c-0.124,0.185-0.32,0.271-0.591,0.261l-4.987-0.197l-0.202,5.117l5.625,0.223c0.251,0.01,0.432,0.106,0.54,0.291
		c0.109,0.184,0.155,0.482,0.139,0.896l-0.027,0.7c-0.017,0.413-0.086,0.707-0.209,0.882s-0.311,0.258-0.562,0.248l-8.495-0.336
		C305.609,539.602,305.361,539.516,305.213,539.356z"/>
	<path fill="#FFFFFF" d="M318.387,539.899c-0.146-0.161-0.208-0.422-0.188-0.78l0.971-16.846c0.021-0.358,0.112-0.61,0.275-0.754
		s0.419-0.205,0.767-0.186l5.272,0.304c2.452,0.142,4.243,1.014,5.371,2.618c1.129,1.604,1.601,4.012,1.415,7.223
		c-0.185,3.212-0.93,5.549-2.234,7.013c-1.306,1.464-3.185,2.125-5.637,1.983l-5.272-0.304
		C318.779,540.151,318.532,540.061,318.387,539.899z M324.457,537.454c1.178,0.068,2.086-0.379,2.723-1.342
		c0.636-0.962,1.021-2.582,1.151-4.86s-0.064-3.933-0.586-4.962c-0.522-1.028-1.373-1.577-2.551-1.645l-2.23-0.129l-0.737,12.81
		L324.457,537.454z"/>
	<path fill="#FFFFFF" d="M337.075,540.779c0.004-0.054,0.035-0.204,0.095-0.452l6.14-16.864c0.151-0.438,0.69-0.62,1.616-0.545
		l1.532,0.124c0.926,0.075,1.438,0.342,1.537,0.801l3.317,17.63c0.019,0.254,0.025,0.407,0.021,0.461
		c-0.029,0.358-0.439,0.506-1.229,0.441l-1.157-0.094c-0.829-0.067-1.269-0.273-1.317-0.62l-0.628-3.756l-5.032-0.407l-1.224,3.605
		c-0.105,0.334-0.533,0.471-1.285,0.41l-1.157-0.094C337.455,541.352,337.046,541.138,337.075,540.779z M346.683,535.013
		l-1.055-6.386c-0.089-0.584-0.153-1.229-0.192-1.936l-0.145-0.012c-0.153,0.69-0.321,1.316-0.502,1.879l-2.04,6.136
		L346.683,535.013z"/>
	<path fill="#FFFFFF" d="M354.619,540.592c-1.072-1.666-1.447-4.153-1.125-7.462c0.313-3.22,1.183-5.555,2.606-7.005
		s3.444-2.048,6.063-1.793c1.059,0.104,1.933,0.306,2.623,0.607c0.28,0.118,0.469,0.271,0.567,0.462
		c0.098,0.189,0.123,0.427,0.076,0.711c-0.052,0.537-0.212,1.031-0.479,1.483c-0.268,0.453-0.567,0.591-0.9,0.414
		c-0.63-0.314-1.312-0.507-2.043-0.578c-1.328-0.13-2.367,0.307-3.115,1.308c-0.749,1.002-1.229,2.594-1.441,4.775
		c-0.215,2.2-0.051,3.863,0.49,4.99c0.542,1.127,1.506,1.758,2.892,1.893c0.424,0.041,0.798,0.042,1.123,0.001
		c0.324-0.04,0.694-0.104,1.111-0.189c0.119-0.024,0.207-0.034,0.265-0.028c0.327,0.032,0.559,0.258,0.692,0.677
		c0.135,0.419,0.174,0.915,0.118,1.487c-0.024,0.251-0.099,0.455-0.221,0.615c-0.122,0.159-0.343,0.277-0.661,0.355
		c-0.34,0.093-0.783,0.158-1.331,0.195c-0.548,0.036-1.12,0.026-1.717-0.032C357.556,543.22,355.691,542.258,354.619,540.592z"/>
	<path fill="#FFFFFF" d="M364.789,543.243c0.006-0.053,0.042-0.202,0.109-0.448l6.681-16.657c0.166-0.434,0.711-0.598,1.633-0.493
		l1.528,0.174c0.923,0.104,1.426,0.388,1.51,0.85l2.747,17.728c0.01,0.255,0.012,0.408,0.006,0.462
		c-0.04,0.357-0.455,0.491-1.242,0.401l-1.153-0.131c-0.827-0.094-1.26-0.314-1.298-0.663l-0.506-3.773l-5.017-0.569l-1.339,3.564
		c-0.116,0.33-0.549,0.453-1.298,0.368l-1.153-0.132C365.151,543.827,364.749,543.601,364.789,543.243z M374.578,537.79
		l-0.849-6.417c-0.069-0.587-0.112-1.233-0.13-1.94l-0.144-0.017c-0.176,0.686-0.363,1.307-0.563,1.862l-2.236,6.066L374.578,537.79
		z"/>
	<path fill="#FFFFFF" d="M381.141,545.387c-0.134-0.171-0.177-0.435-0.13-0.791l2.2-16.729c0.047-0.356,0.157-0.601,0.331-0.731
		c0.173-0.131,0.433-0.175,0.777-0.129l5.236,0.688c2.436,0.32,4.157,1.322,5.165,3.004c1.008,1.683,1.302,4.118,0.883,7.308
		c-0.42,3.189-1.334,5.466-2.742,6.83c-1.409,1.364-3.331,1.886-5.767,1.565l-5.236-0.688
		C381.514,545.667,381.273,545.559,381.141,545.387z M387.373,543.394c1.17,0.153,2.107-0.226,2.813-1.139
		c0.705-0.913,1.207-2.501,1.504-4.764c0.298-2.263,0.225-3.927-0.221-4.991s-1.254-1.674-2.423-1.827l-2.216-0.292l-1.673,12.721
		L387.373,543.394z"/>
	<path fill="#FFFFFF" d="M397.671,547.61c-0.132-0.173-0.17-0.438-0.117-0.794l2.48-16.69c0.053-0.354,0.166-0.597,0.342-0.726
		c0.176-0.128,0.436-0.167,0.78-0.115l8.381,1.245c0.268,0.04,0.445,0.161,0.532,0.365s0.102,0.501,0.044,0.893l-0.104,0.692
		c-0.058,0.392-0.158,0.672-0.301,0.842c-0.143,0.169-0.348,0.234-0.615,0.194l-5.54-0.823l-0.689,4.639l4.938,0.734
		c0.268,0.039,0.445,0.161,0.532,0.365c0.087,0.203,0.102,0.501,0.043,0.892l-0.103,0.693c-0.059,0.392-0.158,0.671-0.301,0.841
		s-0.349,0.234-0.616,0.194l-4.937-0.733l-0.753,5.066l5.568,0.827c0.248,0.037,0.417,0.153,0.506,0.348
		c0.088,0.194,0.103,0.496,0.041,0.905l-0.103,0.693c-0.061,0.409-0.162,0.693-0.303,0.854c-0.142,0.16-0.337,0.222-0.585,0.186
		l-8.41-1.25C398.039,547.897,397.801,547.784,397.671,547.61z"/>
	<path fill="#FFFFFF" d="M418.564,544.722c-0.14-0.105-0.241-0.264-0.304-0.475l-1.791-4.945c-0.082-0.214-0.165-0.483-0.247-0.807
		c-0.084-0.324-0.15-0.572-0.199-0.744l-0.119,0.008c-0.004,0.728-0.037,1.278-0.1,1.65l-1.708,10.208
		c-0.044,0.267-0.191,0.442-0.44,0.528c-0.25,0.086-0.633,0.085-1.147-0.001l-0.772-0.129c-0.516-0.087-0.877-0.211-1.086-0.373
		c-0.208-0.162-0.29-0.377-0.245-0.643l2.872-17.174c0.045-0.266,0.191-0.441,0.441-0.527s0.633-0.086,1.147,0l0.802,0.135
		c0.4,0.066,0.706,0.173,0.917,0.317c0.212,0.145,0.364,0.344,0.46,0.596l2.756,7.621c0.092,0.271,0.192,0.725,0.302,1.362
		c0.169-0.427,0.402-0.825,0.699-1.194l5.058-6.314c0.172-0.208,0.386-0.346,0.643-0.412c0.256-0.066,0.585-0.066,0.985,0.001
		l0.772,0.129c0.516,0.087,0.877,0.211,1.085,0.373c0.209,0.162,0.29,0.377,0.246,0.643l-2.873,17.174
		c-0.044,0.266-0.191,0.442-0.44,0.527c-0.25,0.086-0.633,0.086-1.147,0l-0.744-0.125c-0.516-0.086-0.877-0.21-1.085-0.373
		c-0.208-0.162-0.29-0.376-0.246-0.642l1.708-10.209c0.062-0.372,0.21-0.903,0.442-1.593l-0.109-0.046
		c-0.35,0.562-0.668,1-0.956,1.315l-3.274,4.099c-0.147,0.176-0.299,0.292-0.455,0.348s-0.359,0.063-0.606,0.021l-0.658-0.11
		C418.896,544.9,418.703,544.826,418.564,544.722z"/>
	<path fill="#FFFFFF" d="M433.371,552.962l1.382-7.42l-2.794-10.198c-0.106-0.275-0.145-0.493-0.115-0.652
		c0.063-0.335,0.598-0.409,1.605-0.222l1.142,0.212c0.399,0.075,0.711,0.17,0.936,0.284c0.225,0.115,0.35,0.267,0.373,0.453
		l1.438,7.342l3.959-6.364c0.09-0.166,0.265-0.257,0.523-0.272c0.258-0.016,0.588,0.014,0.987,0.088l0.912,0.17
		c1.046,0.194,1.538,0.46,1.476,0.795c-0.017,0.089-0.121,0.279-0.313,0.573l-6.32,8.583l-1.366,7.341
		c-0.096,0.513-0.628,0.678-1.599,0.497l-0.884-0.164C433.723,553.822,433.276,553.475,433.371,552.962z"/>
</g>
</svg>
